<svg xmlns:dc="http://purl.org/dc/elements/1.1/" xmlns:cc="http://creativecommons.org/ns#" xmlns:rdf="http://www.w3.org/1999/02/22-rdf-syntax-ns#" xmlns:svg="http://www.w3.org/2000/svg" xmlns="http://www.w3.org/2000/svg" xmlns:sodipodi="http://sodipodi.sourceforge.net/DTD/sodipodi-0.dtd" xmlns:inkscape="http://www.inkscape.org/namespaces/inkscape" id="svg2" xml:space="preserve" width="782.71735" height="793.70135" viewBox="0 0 782.71735 793.70135" sodipodi:docname="Isotype_Positrace.ai"><metadata></metadata><defs id="defs6"><clipPath clipPathUnits="userSpaceOnUse" id="clipPath18"><path d="M 0,595.276 H 587.038 V 0 H 0 Z" id="path16"></path></clipPath><clipPath clipPathUnits="userSpaceOnUse" id="clipPath30"><path d="M 153.295,428.375 H 402.418 V 175.457 H 153.295 Z" id="path28"></path></clipPath></defs><g id="g10" inkscape:groupmode="layer" inkscape:label="Isotype_Positrace" transform="matrix(1.3333333,0,0,-1.3333333,0,793.70133)"><g id="g12"><g id="g14" clip-path="url(#clipPath18)"><g id="g20" transform="translate(482.3049,357.2202)"><path d="m 0,0 c -0.116,1.652 -0.258,3.307 -0.399,4.992 -2.48,29.481 -12.084,56.516 -28.192,81.22 -19.01,29.156 -43.683,52.204 -74.828,68.04 -21.662,11.016 -44.618,17.61 -68.851,19.739 -2.079,0.183 -4.223,-0.04 -6.24,0.728 h -20.552 c -3.329,-0.792 -6.754,-0.745 -10.129,-1.114 -28.142,-3.071 -54.43,-11.756 -78.364,-26.833 -42.604,-26.837 -71.317,-64.289 -84.724,-113.082 -7.118,-25.903 -7.203,-53.417 -1.351,-79.563 2.353,-10.514 5.711,-20.795 9.961,-30.694 1.89,-4.403 3.953,-8.73 6.177,-12.974 0.163,-0.312 0.342,-0.611 0.507,-0.921 38.205,61.44 129.339,174.409 277.364,161.617 0,0 -154.947,-65.392 -152.557,-302.514 15.603,-19.306 29.763,-39.693 42.385,-61.245 0.236,-0.404 0.398,-0.852 0.596,-1.279 h 0.411 c 0.268,0.544 0.504,1.107 0.808,1.629 22.251,38.067 49.573,72.173 80.489,103.521 18.036,18.287 36.596,36.049 54.477,54.483 25.214,25.993 42.425,56.426 49.807,92.112 1.814,8.773 2.955,17.83 3.454,26.772 C 0.533,-10.272 0.36,-5.087 0,0" style="fill:#2863a8;fill-opacity:1;fill-rule:nonzero;stroke:none" id="path22"></path></g><g id="g24"><g id="g26"></g><g id="g54"><g clip-path="url(#clipPath30)" opacity="0.699997" id="g52"><g transform="translate(234.552,341.416)" id="g34"><path d="m 0,0 c 6.998,-6.658 15.682,-14.642 23.591,-21.129 1.607,-1.32 3.991,-0.927 5.11,0.826 8.368,13.101 17.158,24.648 26.09,34.81 1.265,1.439 1.119,3.602 -0.321,4.864 -6.058,5.308 -12.03,10.859 -17.069,15.664 -1.253,1.195 -3.204,1.29 -4.557,0.209 C 20.981,25.766 9.987,15.495 -0.128,4.882 -1.442,3.503 -1.38,1.313 0,0" style="fill:#2863a8;fill-opacity:1;fill-rule:nonzero;stroke:none" id="path32"></path></g><g transform="translate(281.8879,383.9711)" id="g38"><path d="m 0,0 c 4.79,-4.54 10.298,-9.628 15.798,-14.435 1.355,-1.184 3.397,-1.083 4.68,0.181 7.546,7.441 15.09,13.976 22.462,19.701 1.158,0.898 1.198,2.594 0.092,3.554 -4.05,3.515 -8.085,7.166 -11.863,10.672 -1.067,0.99 -2.634,1.198 -3.922,0.521 C 17.855,15.264 8.867,9.731 0.283,3.743 -0.972,2.867 -1.11,1.053 0,0" style="fill:#2863a8;fill-opacity:1;fill-rule:nonzero;stroke:none" id="path36"></path></g><g transform="translate(322.4572,407.5258)" id="g42"><path d="m 0,0 c 3.624,-3.314 7.401,-6.679 11.114,-9.842 0.684,-0.582 1.675,-0.61 2.413,-0.101 5.608,3.865 11.057,7.276 16.262,10.27 1.189,0.683 1.342,2.306 0.312,3.211 -2.627,2.308 -5.232,4.653 -7.754,6.969 -0.532,0.489 -1.285,0.65 -1.97,0.425 C 13.592,8.713 6.982,6.161 0.545,3.319 -0.774,2.736 -1.064,0.974 0,0" style="fill:#2863a8;fill-opacity:1;fill-rule:nonzero;stroke:none" id="path40"></path></g><g transform="translate(153.2942,226.974)" id="g46"><path d="m 0,0 0.002,-0.002 c 2.38,-2.608 4.806,-5.185 7.324,-7.691 7.464,-7.425 14.954,-14.824 22.434,-22.232 0.702,-0.697 1.405,-1.393 2.107,-2.091 6.526,-6.47 13.029,-12.962 19.485,-19.502 3.526,1.123 2.298,0.733 5.825,1.856 8.363,48.315 22.147,87.467 38.596,119.185 0.764,1.472 0.381,3.234 -0.921,4.26 -9.201,7.244 -19.502,16.628 -27.679,24.381 -1.449,1.373 -3.776,1.221 -5.044,-0.32 C 29.81,58.595 8.984,18.845 0,0" style="fill:#2863a8;fill-opacity:1;fill-rule:nonzero;stroke:none" id="path44"></path></g><g transform="translate(402.4182,428.3749)" id="g50"><path d="m 0,0 c -16.84,-0.197 -32.861,-2.513 -48.064,-6.511 -1.539,-0.405 -2.005,-2.382 -0.821,-3.444 1.714,-1.536 3.446,-3.066 5.173,-4.563 1.063,-0.921 2.588,-1.077 3.842,-0.44 C -16.428,-3.063 0,0 0,0" style="fill:#2863a8;fill-opacity:1;fill-rule:nonzero;stroke:none" id="path48"></path></g></g></g></g></g></g></g></svg>